<svg xmlns="http://www.w3.org/2000/svg"  viewBox="0 0 64 64" width="50px" height="50px"><linearGradient id="g0k2Ztv00eLuxN5XRrz6Ga" x1="30.003" x2="30.003" y1="10.447" y2="57.301" gradientUnits="userSpaceOnUse"><stop offset="0" stop-color="#1a6dff"/><stop offset="1" stop-color="#c822ff"/></linearGradient><path fill="url(#g0k2Ztv00eLuxN5XRrz6Ga)" d="M53.434,42.111c-0.826-1.422-2.369-2.227-4.031-2.117c-1.506,0.106-3.034,0.065-4.548-0.12 c-10.704-1.308-19.422-10.026-20.729-20.73c-0.185-1.515-0.225-3.045-0.118-4.547c0.115-1.66-0.696-3.204-2.119-4.031 c-1.389-0.807-3.02-0.754-4.362,0.14C9.296,16.181,4.962,25.708,6.215,35.568c1.452,11.421,10.796,20.765,22.218,22.217 c1.125,0.143,2.246,0.213,3.357,0.213c8.624,0,16.654-4.232,21.505-11.521C54.189,45.133,54.241,43.501,53.434,42.111z M51.631,45.369c-5.053,7.592-13.842,11.591-22.946,10.432C18.153,54.462,9.538,45.847,8.199,35.316 c-1.157-9.102,2.842-17.895,10.435-22.947c0.367-0.244,0.775-0.367,1.184-0.367c0.364,0,0.729,0.098,1.065,0.293 c0.594,0.345,1.203,1.095,1.129,2.162c-0.115,1.629-0.071,3.287,0.129,4.929c1.417,11.604,10.867,21.056,22.472,22.473 c1.639,0.201,3.294,0.243,4.93,0.131c1.064-0.075,1.817,0.534,2.163,1.128C52.121,43.832,52.093,44.674,51.631,45.369z"/><linearGradient id="g0k2Ztv00eLuxN5XRrz6Gb" x1="29.565" x2="29.565" y1="10.447" y2="57.301" gradientUnits="userSpaceOnUse"><stop offset="0" stop-color="#1a6dff"/><stop offset="1" stop-color="#c822ff"/></linearGradient><path fill="url(#g0k2Ztv00eLuxN5XRrz6Gb)" d="M31.81,52c-0.867,0-1.749-0.056-2.621-0.167c-8.751-1.113-15.909-8.271-17.021-17.021 l-1.984,0.252c1.226,9.64,9.112,17.527,18.754,18.754C29.892,53.938,30.858,54,31.81,54c6.73,0,12.978-3.037,17.138-8.333 l-1.572-1.236C43.596,49.241,37.923,52,31.81,52z"/><linearGradient id="g0k2Ztv00eLuxN5XRrz6Gc" x1="26.462" x2="26.462" y1="10.447" y2="57.301" gradientUnits="userSpaceOnUse"><stop offset="0" stop-color="#1a6dff"/><stop offset="1" stop-color="#c822ff"/></linearGradient><path fill="url(#g0k2Ztv00eLuxN5XRrz6Gc)" d="M29.44,49.85c0.788,0.1,1.585,0.15,2.369,0.15c2.418,0,4.761-0.474,6.965-1.408 l-0.781-1.842c-2.592,1.1-5.436,1.482-8.301,1.115c-6.97-0.887-12.672-6.589-13.558-13.559l-1.984,0.252 C15.149,42.419,21.58,48.85,29.44,49.85z"/><linearGradient id="g0k2Ztv00eLuxN5XRrz6Gd" x1="42.45" x2="42.45" y1="23.814" y2="31.091" gradientUnits="userSpaceOnUse"><stop offset="0" stop-color="#6dc7ff"/><stop offset="1" stop-color="#e6abff"/></linearGradient><path fill="url(#g0k2Ztv00eLuxN5XRrz6Gd)" d="M43.138,23.518l0.3,1.042c0.272,0.943,1.009,1.68,1.952,1.952l1.042,0.3 c0.691,0.199,0.691,1.178,0,1.377l-1.042,0.3c-0.943,0.272-1.68,1.009-1.952,1.952l-0.3,1.042c-0.199,0.691-1.178,0.691-1.377,0 l-0.3-1.042c-0.272-0.943-1.009-1.68-1.952-1.952l-1.042-0.3c-0.691-0.199-0.691-1.178,0-1.377l1.042-0.3 c0.943-0.272,1.68-1.009,1.952-1.952l0.3-1.042C41.96,22.827,42.939,22.827,43.138,23.518z"/><linearGradient id="g0k2Ztv00eLuxN5XRrz6Ge" x1="34.45" x2="34.45" y1="11.452" y2="15.495" gradientUnits="userSpaceOnUse"><stop offset="0" stop-color="#6dc7ff"/><stop offset="1" stop-color="#e6abff"/></linearGradient><path fill="url(#g0k2Ztv00eLuxN5XRrz6Ge)" d="M34.832,11.288l0.167,0.579c0.151,0.524,0.56,0.933,1.084,1.084l0.579,0.167 c0.384,0.111,0.384,0.654,0,0.765l-0.579,0.167c-0.524,0.151-0.933,0.56-1.084,1.084l-0.167,0.579 c-0.111,0.384-0.654,0.384-0.765,0L33.9,15.134c-0.151-0.524-0.56-0.933-1.084-1.084l-0.579-0.167 c-0.384-0.111-0.384-0.654,0-0.765l0.579-0.167c0.524-0.151,0.933-0.56,1.084-1.084l0.167-0.579 C34.178,10.904,34.721,10.904,34.832,11.288z"/><linearGradient id="g0k2Ztv00eLuxN5XRrz6Gf" x1="52.5" x2="52.5" y1="5.795" y2="15.8" gradientUnits="userSpaceOnUse"><stop offset="0" stop-color="#6dc7ff"/><stop offset="1" stop-color="#e6abff"/></linearGradient><path fill="url(#g0k2Ztv00eLuxN5XRrz6Gf)" d="M53.341,6.633l0.367,1.273c0.332,1.153,1.233,2.054,2.386,2.386l1.273,0.367 c0.844,0.243,0.844,1.44,0,1.683l-1.273,0.367c-1.153,0.332-2.054,1.233-2.386,2.386l-0.367,1.273c-0.243,0.844-1.44,0.844-1.683,0 l-0.367-1.273c-0.332-1.153-1.233-2.054-2.386-2.386l-1.273-0.367c-0.844-0.243-0.844-1.44,0-1.683l1.273-0.367 c1.153-0.332,2.054-1.233,2.386-2.386l0.367-1.273C51.902,5.789,53.098,5.789,53.341,6.633z"/></svg>