<svg xmlns="http://www.w3.org/2000/svg"  viewBox="0 0 64 64" width="64px" height="64px"><linearGradient id="eAAAr90WNRrufYMrYPxxFa" x1="46.36" x2="46.36" y1="50.234" y2="54.979" gradientUnits="userSpaceOnUse"><stop offset="0" stop-color="#6dc7ff"/><stop offset="1" stop-color="#e6abff"/></linearGradient><path fill="url(#eAAAr90WNRrufYMrYPxxFa)" d="M47.81,49.208l-4.303,1.229c-1.034,0.295-1.37,1.593-0.61,2.353l3.661,3.661	c0.77,0.77,2.083,0.429,2.382-0.617l1.221-4.275C50.571,50.125,49.245,48.798,47.81,49.208z"/><linearGradient id="eAAAr90WNRrufYMrYPxxFb" x1="12.692" x2="12.692" y1="13.383" y2="18.192" gradientUnits="userSpaceOnUse"><stop offset="0" stop-color="#6dc7ff"/><stop offset="1" stop-color="#e6abff"/></linearGradient><path fill="url(#eAAAr90WNRrufYMrYPxxFb)" d="M8.899,17.409l1.229-4.303c0.295-1.034,1.593-1.37,2.353-0.61l3.661,3.661	c0.77,0.77,0.429,2.083-0.617,2.382L11.25,19.76C9.815,20.17,8.489,18.844,8.899,17.409z"/><linearGradient id="eAAAr90WNRrufYMrYPxxFc" x1="32.908" x2="32.908" y1="5.851" y2="55.387" gradientUnits="userSpaceOnUse"><stop offset="0" stop-color="#1a6dff"/><stop offset="1" stop-color="#c822ff"/></linearGradient><path fill="url(#eAAAr90WNRrufYMrYPxxFc)" d="M50.395,13.619C40.491,3.716,24.523,3.494,14.34,12.94l-1.151-1.151 c-0.61-0.61-1.473-0.845-2.309-0.629c-0.835,0.217-1.476,0.842-1.712,1.672l-1.23,4.303c-0.294,1.027-0.018,2.093,0.738,2.849 c0.557,0.557,1.282,0.854,2.036,0.854c0.27,0,0.543-0.038,0.813-0.115l4.274-1.221c0.836-0.239,1.465-0.884,1.684-1.726 c0.218-0.842-0.019-1.711-0.634-2.325l-1.078-1.078c9.403-8.663,24.087-8.46,33.21,0.661c8.026,8.027,9.32,20.718,3.076,30.176 l1.669,1.102C60.491,36.063,59.09,22.314,50.395,13.619z M15.547,17.273c-0.023,0.089-0.092,0.246-0.296,0.304l-4.275,1.221 c-0.46,0.138-0.773-0.115-0.886-0.229c-0.112-0.112-0.36-0.424-0.229-0.885l1.229-4.303c0.056-0.196,0.207-0.263,0.292-0.284 c0.029-0.008,0.067-0.015,0.11-0.015c0.084,0,0.188,0.026,0.283,0.121l3.661,3.661C15.585,17.015,15.57,17.186,15.547,17.273z"/><linearGradient id="eAAAr90WNRrufYMrYPxxFd" x1="28.623" x2="28.623" y1="5.851" y2="55.387" gradientUnits="userSpaceOnUse"><stop offset="0" stop-color="#1a6dff"/><stop offset="1" stop-color="#c822ff"/></linearGradient><path fill="url(#eAAAr90WNRrufYMrYPxxFd)" d="M47.535,48.246l-4.303,1.23c-0.83,0.237-1.455,0.877-1.671,1.713 c-0.216,0.835,0.019,1.698,0.629,2.309l0.153,0.153c-9.076,4.324-20.135,2.492-27.304-4.677 c-6.201-6.201-8.526-15.289-6.066-23.717l-1.92-0.561c-2.664,9.13-0.146,18.974,6.572,25.691 c4.978,4.979,11.688,7.589,18.455,7.589c4.019,0,8.055-0.934,11.762-2.828l2.009,2.009c0.464,0.465,1.074,0.714,1.707,0.714 c0.205,0,0.412-0.026,0.618-0.08c0.842-0.218,1.487-0.847,1.727-1.684l1.221-4.274c0.294-1.028,0.018-2.094-0.739-2.85 S48.564,47.954,47.535,48.246z M49.2,51.285l-1.221,4.274c-0.059,0.205-0.216,0.273-0.305,0.297 c-0.089,0.022-0.259,0.037-0.409-0.112l-3.66-3.66c-0.145-0.145-0.129-0.309-0.107-0.394s0.088-0.235,0.285-0.291l4.303-1.229 c0.092-0.026,0.179-0.038,0.259-0.038c0.319,0,0.536,0.177,0.626,0.267C49.083,50.512,49.332,50.824,49.2,51.285z"/><linearGradient id="eAAAr90WNRrufYMrYPxxFe" x1="32" x2="32" y1="5.851" y2="55.387" gradientUnits="userSpaceOnUse"><stop offset="0" stop-color="#1a6dff"/><stop offset="1" stop-color="#c822ff"/></linearGradient><path fill="url(#eAAAr90WNRrufYMrYPxxFe)" d="M48.971,32C48.971,32,48.971,32,48.971,32L33.414,16.443 c-0.015-0.015-0.035-0.02-0.051-0.034c-0.069-0.061-0.144-0.111-0.227-0.151c-0.03-0.015-0.058-0.031-0.089-0.042 c-0.108-0.039-0.221-0.066-0.34-0.066h-8.485c-0.119,0-0.232,0.027-0.34,0.066c-0.031,0.011-0.059,0.028-0.089,0.042 c-0.083,0.04-0.158,0.09-0.227,0.151c-0.016,0.014-0.036,0.019-0.051,0.034l-9.9,9.899c-1.169,1.17-1.169,3.073,0,4.243L32,48.971 c0,0,0,0,0,0l1.414,1.414c0.585,0.585,1.353,0.878,2.122,0.877c0.768,0,1.536-0.292,2.121-0.877l12.729-12.728 c1.169-1.17,1.169-3.073,0-4.243L48.971,32z M30.293,18.15l-1.829,1.829l-1.829-1.829H30.293z M15.029,27.757l9.192-9.192 l3.536,3.536c0.188,0.188,0.442,0.293,0.707,0.293s0.52-0.105,0.707-0.293l3.536-3.536L44.593,30.45l0,0l2.257,2.257L32.707,46.849 l-2.686-2.686l0,0L15.03,29.172C14.64,28.782,14.64,28.146,15.029,27.757z M48.971,36.243L36.243,48.971 c-0.391,0.391-1.025,0.391-1.415,0l-0.707-0.707l14.142-14.142l0.707,0.707C49.36,35.218,49.36,35.854,48.971,36.243z"/><linearGradient id="eAAAr90WNRrufYMrYPxxFf" x1="31.293" x2="31.293" y1="26.745" y2="35.438" gradientUnits="userSpaceOnUse"><stop offset="0" stop-color="#6dc7ff"/><stop offset="1" stop-color="#e6abff"/></linearGradient><path fill="url(#eAAAr90WNRrufYMrYPxxFf)" d="M26.697,30.939l0.707,0.707c0.195,0.195,0.512,0.195,0.707,0l1.061-1.061l5.303,5.303	c0.195,0.195,0.512,0.195,0.707,0l0.707-0.707c0.195-0.195,0.195-0.512,0-0.707l-5.303-5.303l1.061-1.061	c0.195-0.195,0.195-0.512,0-0.707l-0.707-0.707c-0.195-0.195-0.512-0.195-0.707,0l-3.536,3.536	C26.501,30.427,26.501,30.744,26.697,30.939z"/></svg>